{"title":"City of Gold (2010) 900mb EU-PDVD Rip Xvid MP3 [Dare DEvils]","uid":5566292,"size":936474636,"categoryP":"video","categoryS":"movies","magnet":"?xt=urn:btih:6f4fd6dc02ab8ed5690b43ef4f516d2b177dde35&amp;dn=City+of+Gold+%282010%29+900mb+EU-PDVD+Rip+Xvid+MP3+%5BDare+DEvils%5D&amp;tr=udp%3A%2F%2Ftracker.openbittorrent.com%3A80&amp;tr=udp%3A%2F%2Fopen.demonii.com%3A1337&amp;tr=udp%3A%2F%2Ftracker.coppersurfer.tk%3A6969&amp;tr=udp%3A%2F%2Fexodus.desync.com%3A6969","seeders":0,"leechers":1,"uploader":"luvwithromio","files":-1,"time":1273993981,"description":"Format                           : AVI\nFormat/Info                      : Audio Video Interleave\nFile size                        : 893 MiB\nDuration                         : 2h 23mn\nOverall bit rate                 : 871 Kbps\n\nVideo\nID                               : 0\nFormat                           : MPEG-4 Visual\nFormat profile                   : Advanced Simple@L5\nFormat settings, BVOP            : Yes\nFormat settings, QPel            : No\nFormat settings, GMC             : No warppoints\nFormat settings, Matrix          : Default (MPEG)\nCodec ID                         : XVID\nCodec ID/Hint                    : XviD\nDuration                         : 2h 23mn\nBit rate                         : 731 Kbps\nWidth                            : 640 pixels\nHeight                           : 272 pixels\nDisplay aspect ratio             : 2.35:1\nFrame rate                       : 23.976 fps\nResolution                       : 8 bits\nColorimetry                      : 4:2:0\nScan type                        : Progressive\nBits/(Pixel*Frame)               : 0.175\nStream size                      : 749 MiB (84%)\nWriting library                  : XviD 1.1.2 (UTC 2006-11-01)\n\nAudio\nID                               : 1\nFormat                           : MPEG Audio\nFormat version                   : Version 1\nFormat profile                   : Layer 3\nCodec ID                         : 55\nCodec ID/Hint                    : MP3\nDuration                         : 2h 23mn\nBit rate mode                    : Constant\nBit rate                         : 128 Kbps\nChannel(s)                       : 2 channels\nSampling rate                    : 48.0 KHz\nStream size                      : 131 MiB (15%)\nAlignment                        : Split accross interleaves\nInterleave, duration             : 24 ms (0.58 video frame)","torrent":{"xt":"urn:btih:6f4fd6dc02ab8ed5690b43ef4f516d2b177dde35","amp;dn":"City+of+Gold+%282010%29+900mb+EU-PDVD+Rip+Xvid+MP3+%5BDare+DEvils%5D","amp;tr":["udp%3A%2F%2Ftracker.openbittorrent.com%3A80","udp%3A%2F%2Fopen.demonii.com%3A1337","udp%3A%2F%2Ftracker.coppersurfer.tk%3A6969","udp%3A%2F%2Fexodus.desync.com%3A6969"],"infoHash":"6f4fd6dc02ab8ed5690b43ef4f516d2b177dde35","infoHashBuffer":{"type":"Buffer","data":[111,79,214,220,2,171,142,213,105,11,67,239,79,81,109,43,23,125,222,53]},"announce":[],"urlList":[]}}